<svg width="78" height="76" viewBox="0 0 78 76" fill="none" xmlns="http://www.w3.org/2000/svg">
<path d="M38.9043 1.5C59.5958 1.5 76.3096 17.8747 76.3096 38C76.3096 58.1253 59.5958 74.5 38.9043 74.5C18.213 74.4998 1.5 58.1252 1.5 38C1.5 17.8748 18.213 1.50025 38.9043 1.5Z" fill="white" fill-opacity="0.17" stroke="black" stroke-width="3"/>
<path d="M38.491 17.1413V14.8696M38.491 17.1413C34.2649 17.1413 30.2119 18.8167 27.2236 21.7989C24.2354 24.7812 22.5566 28.826 22.5566 33.0435M38.491 17.1413C42.717 17.1413 46.77 18.8167 49.7583 21.7989C52.7466 24.7812 54.4254 28.826 54.4254 33.0435M46.2305 49.8544L53.5148 43.4935C53.9483 43.0758 54.4599 42.7475 55.0205 42.5271C55.5811 42.3068 56.1798 42.1988 56.7822 42.2094C57.3846 42.2199 57.9791 42.3488 58.5316 42.5886C59.0841 42.8284 59.5839 43.1745 60.0024 43.6071C60.4209 44.0396 60.7499 44.5503 60.9707 45.1097C61.1915 45.6692 61.2997 46.2666 61.2891 46.8678C61.2785 47.469 61.1494 48.0623 60.9091 48.6137C60.6688 49.1651 60.322 49.6639 59.8886 50.0815L51.6937 57.5783C50.1003 59.3957 47.824 60.3044 45.32 60.3044H36.2146C33.7106 60.3044 31.4343 59.3957 29.8409 57.5783L26.8771 54.2524C26.6637 54.0126 26.4018 53.8206 26.1088 53.6891C25.8157 53.5575 25.498 53.4894 25.1766 53.4891H22.5566M15.7275 42.1304H43.0436C44.2511 42.1304 45.4091 42.6091 46.2629 43.4612C47.1167 44.3133 47.5963 45.4689 47.5963 46.6739C47.5963 47.8789 47.1167 49.0346 46.2629 49.8866C45.4091 50.7387 44.2511 51.2174 43.0436 51.2174H38.491M20.2802 33.0435H56.7017M22.5566 42.1304V55.7609C22.5566 56.3634 22.3167 56.9412 21.8898 57.3672C21.4629 57.7933 20.8839 58.0326 20.2802 58.0326H15.7275" stroke="white" stroke-width="2" stroke-linecap="round" stroke-linejoin="round"/>
</svg>
