<svg width="94" height="92" viewBox="0 0 94 92" fill="none" xmlns="http://www.w3.org/2000/svg">
<path d="M47 1.5C72.1595 1.5 92.5 21.4536 92.5 46C92.5 70.5464 72.1595 90.5 47 90.5C21.8405 90.5 1.5 70.5464 1.5 46C1.5 21.4536 21.8405 1.5 47 1.5Z" fill="#5E0B0B" stroke="black" stroke-width="3"/>
<path d="M46.5 20.75V18V20.75Z" fill="#5E0B0B"/>
<path d="M55.85 60.35L64.65 52.65C65.1736 52.1444 65.7917 51.7469 66.469 51.4802C67.1463 51.2135 67.8694 51.0828 68.5972 51.0956C69.325 51.1083 70.0431 51.2643 70.7106 51.5546C71.3781 51.8449 71.9819 52.2639 72.4875 52.7875C72.9931 53.3111 73.3906 53.9292 73.6573 54.6065C73.924 55.2838 74.0547 56.007 74.042 56.7347C74.0292 57.4625 73.8732 58.1806 73.5829 58.8481C73.2926 59.5156 72.8736 60.1194 72.35 60.625L62.45 69.7C60.525 71.9 57.775 73 54.75 73H43.75C40.725 73 37.975 71.9 36.05 69.7L32.4695 65.674C32.2117 65.3837 31.8954 65.1513 31.5413 64.992C31.1873 64.8328 30.8035 64.7503 30.4152 64.75H27.25" fill="#5E0B0B"/>
<path d="M19 51H52C53.4587 51 54.8576 51.5795 55.8891 52.6109C56.9205 53.6424 57.5 55.0413 57.5 56.5C57.5 57.9587 56.9205 59.3576 55.8891 60.3891C54.8576 61.4205 53.4587 62 52 62H46.5" fill="#5E0B0B"/>
<path d="M24.5 40H68.5H24.5Z" fill="#5E0B0B"/>
<path d="M27.25 40C27.25 34.8946 29.2781 29.9983 32.8882 26.3882C36.4983 22.7781 41.3946 20.75 46.5 20.75C51.6054 20.75 56.5017 22.7781 60.1118 26.3882C63.7219 29.9983 65.75 34.8946 65.75 40" fill="#5E0B0B"/>
<path d="M27.25 51V67.5C27.25 68.2293 26.9603 68.9288 26.4445 69.4445C25.9288 69.9603 25.2293 70.25 24.5 70.25H19" fill="#5E0B0B"/>
<path d="M46.5 20.75V18M46.5 20.75C41.3946 20.75 36.4983 22.7781 32.8882 26.3882C29.2781 29.9983 27.25 34.8946 27.25 40M46.5 20.75C51.6054 20.75 56.5017 22.7781 60.1118 26.3882C63.7219 29.9983 65.75 34.8946 65.75 40M55.85 60.35L64.65 52.65C65.1736 52.1444 65.7917 51.7469 66.469 51.4802C67.1463 51.2135 67.8694 51.0828 68.5972 51.0955C69.325 51.1083 70.0431 51.2643 70.7106 51.5546C71.3781 51.8449 71.9819 52.2639 72.4875 52.7875C72.9931 53.3111 73.3906 53.9292 73.6573 54.6065C73.924 55.2838 74.0547 56.0069 74.042 56.7347C74.0292 57.4625 73.8732 58.1806 73.5829 58.8481C73.2926 59.5156 72.8736 60.1194 72.35 60.625L62.45 69.7C60.525 71.9 57.775 73 54.75 73H43.75C40.725 73 37.975 71.9 36.05 69.7L32.4695 65.674C32.2117 65.3837 31.8954 65.1513 31.5413 64.992C31.1873 64.8328 30.8035 64.7503 30.4153 64.75H27.25M19 51H52C53.4587 51 54.8576 51.5795 55.8891 52.6109C56.9205 53.6424 57.5 55.0413 57.5 56.5C57.5 57.9587 56.9205 59.3576 55.8891 60.3891C54.8576 61.4205 53.4587 62 52 62H46.5M24.5 40H68.5M27.25 51V67.5C27.25 68.2293 26.9603 68.9288 26.4445 69.4445C25.9288 69.9603 25.2293 70.25 24.5 70.25H19" stroke="white" stroke-width="2" stroke-linecap="round" stroke-linejoin="round"/>
</svg>
