<?xml version="1.0" encoding="UTF-8"?>
<svg id="Calque_2" data-name="Calque 2" xmlns="http://www.w3.org/2000/svg" viewBox="0 0 227.8 93.28">
  <defs>
    <style>
      .cls-1 {
        fill: none;
        stroke: #fff;
        stroke-miterlimit: 10;
        stroke-width: .4px;
      }

      .cls-2 {
        fill: #fff;
      }

      .cls-3 {
        fill: #b13027;
      }

      .cls-4 {
        fill: #b13127;
      }
    </style>
  </defs>
  <g id="Calque_1-2" data-name="Calque 1">
    <g>
      <g>
        <path class="cls-3" d="M56.9,93.28h-7.27c-.12,0-.19-.07-.19-.21v-14.43c0-.14.06-.21.19-.21h.32c.12,0,.18.07.18.21v13.76c0,.12.07.18.21.18h6.55c.14,0,.21.06.21.19v.32c0,.12-.07.19-.21.19Z"/>
        <path class="cls-3" d="M60.27,78.64v1.82c0,.23-.2,1.34-.6,3.33-.02.09-.06.14-.14.14s-.12-.05-.12-.14v-5.15c0-.14.06-.21.19-.21h.48c.12,0,.19.07.19.21Z"/>
        <path class="cls-3" d="M62.71,93.28h-.23c-.1,0-.13-.05-.1-.15l3.39-10.1c.03-.1.09-.14.16-.14h.39c.08,0,.13.05.16.14l3.4,10.1c.03.1,0,.15-.1.15h-.24c-.08,0-.13-.05-.16-.15l-.99-2.81h-4.53l-.98,2.81c-.05.1-.1.15-.18.15ZM66.11,83.5l-2.05,6.33h4.17l-2.05-6.33h-.06Z"/>
        <path class="cls-3" d="M72.2,93.28h-.23c-.09,0-.13-.05-.13-.15v-10.1c0-.1.04-.14.13-.14h3.64c.66,0,1.18.2,1.58.6.39.4.59.93.59,1.6v1.61c0,.6-.16,1.1-.48,1.48-.32.38-.76.61-1.31.69v.06l1.99,4.2c.06.1.03.15-.06.15h-.29c-.08,0-.15-.05-.21-.15l-1.97-4.23h-2.96c-.1,0-.15.04-.15.13v4.1c0,.1-.04.15-.13.15ZM72.47,88.45h3.13c.54,0,.96-.15,1.25-.47s.44-.74.44-1.29v-1.58c0-.55-.15-.98-.44-1.29s-.71-.47-1.25-.47h-3.13c-.1,0-.15.05-.15.13v4.85c0,.08.05.13.15.13Z"/>
        <path class="cls-3" d="M82.41,93.28h-.23c-.09,0-.13-.05-.13-.15v-9.66c0-.08-.05-.13-.15-.13h-2.49c-.1,0-.14-.04-.14-.13v-.19c0-.09.05-.13.14-.13h5.75c.1,0,.14.04.14.13v.19c0,.09-.05.13-.14.13h-2.49c-.1,0-.15.05-.15.13v9.66c0,.1-.04.15-.13.15Z"/>
        <path class="cls-3" d="M97.66,93.28h-2.1c-.66,0-1.18-.2-1.58-.6-.39-.4-.59-.93-.59-1.6v-5.99c0-.67.19-1.2.59-1.6s.92-.6,1.58-.6h2.1c.66,0,1.18.2,1.58.6.39.4.59.93.59,1.6v.81c0,.1-.04.15-.13.15h-.23c-.09,0-.13-.05-.13-.15v-.79c0-.55-.15-.98-.44-1.29s-.7-.47-1.24-.47h-2.1c-.54,0-.95.16-1.24.47-.29.31-.44.74-.44,1.29v5.96c0,.55.14.98.44,1.29.29.31.7.47,1.24.47h2.1c.54,0,.95-.15,1.24-.47s.44-.74.44-1.29v-.79c0-.1.04-.14.13-.14h.23c.09,0,.13.05.13.14v.81c0,.67-.2,1.2-.59,1.6-.39.4-.92.6-1.58.6Z"/>
        <path class="cls-3" d="M108.04,82.89h.23c.08,0,.13.04.13.13v8.06c0,.67-.19,1.2-.59,1.6-.39.4-.92.6-1.58.6h-1.81c-.66,0-1.18-.2-1.58-.6-.39-.4-.59-.93-.59-1.6v-8.05c0-.1.05-.14.13-.14h.23c.08,0,.13.05.13.14v8.03c0,.55.15.98.44,1.29.29.31.71.47,1.25.47h1.81c.54,0,.95-.15,1.25-.47.29-.31.43-.74.43-1.29v-8.03c0-.1.05-.14.13-.14Z"/>
        <path class="cls-3" d="M116.44,93.28h-5.09c-.09,0-.13-.05-.13-.15v-10.1c0-.1.04-.14.13-.14h.23c.09,0,.13.05.13.14v9.63c0,.09.05.13.15.13h4.59c.1,0,.15.04.15.13v.23c0,.09-.05.13-.15.13Z"/>
        <path class="cls-3" d="M119.09,83.03v10.1c0,.1-.05.15-.13.15h-.23c-.09,0-.13-.05-.13-.15v-10.1c0-.1.04-.14.13-.14h.23c.08,0,.13.05.13.14Z"/>
        <path class="cls-3" d="M122.44,93.28h-.23c-.09,0-.13-.05-.13-.15v-10.1c0-.1.04-.14.13-.14h.23c.05,0,.09.02.11.06l5.41,9.16h.06v-9.08c0-.1.05-.14.13-.14h.23c.08,0,.13.05.13.14v10.1c0,.1-.04.15-.13.15h-.16c-.08,0-.14-.04-.19-.13l-5.4-9.13h-.06v9.11c0,.1-.04.15-.13.15Z"/>
        <path class="cls-3" d="M130.79,93.28h-.23c-.1,0-.13-.05-.1-.15l3.39-10.1c.03-.1.09-.14.16-.14h.39c.08,0,.13.05.16.14l3.4,10.1c.03.1,0,.15-.1.15h-.24c-.08,0-.13-.05-.16-.15l-.99-2.81h-4.53l-.98,2.81c-.05.1-.1.15-.18.15ZM134.18,83.5l-2.05,6.33h4.17l-2.05-6.33h-.06Z"/>
        <path class="cls-3" d="M140.48,83.03v10.1c0,.1-.05.15-.13.15h-.23c-.09,0-.13-.05-.13-.15v-10.1c0-.1.04-.14.13-.14h.23c.08,0,.13.05.13.14Z"/>
        <path class="cls-3" d="M143.83,93.28h-.23c-.09,0-.13-.05-.13-.15v-10.1c0-.1.04-.14.13-.14h3.64c.66,0,1.18.2,1.58.6.39.4.59.93.59,1.6v1.61c0,.6-.16,1.1-.48,1.48-.32.38-.76.61-1.31.69v.06l1.99,4.2c.06.1.03.15-.06.15h-.29c-.08,0-.15-.05-.21-.15l-1.97-4.23h-2.96c-.1,0-.15.04-.15.13v4.1c0,.1-.04.15-.13.15ZM144.11,88.45h3.13c.54,0,.96-.15,1.25-.47s.44-.74.44-1.29v-1.58c0-.55-.15-.98-.44-1.29s-.71-.47-1.25-.47h-3.13c-.1,0-.15.05-.15.13v4.85c0,.08.05.13.15.13Z"/>
        <path class="cls-3" d="M157.08,93.28h-4.91c-.09,0-.13-.05-.13-.15v-10.1c0-.1.04-.14.13-.14h4.91c.1,0,.15.04.15.13v.19c0,.09-.05.13-.15.13h-4.41c-.1,0-.15.05-.15.13v4.15c0,.09.05.13.15.13h3.99c.1,0,.15.04.15.13v.19c0,.08-.05.13-.15.13h-3.99c-.1,0-.15.05-.15.13v4.37c0,.08.05.13.15.13h4.41c.1,0,.15.05.15.13v.19c0,.09-.05.13-.15.13Z"/>
        <path class="cls-3" d="M171.06,82.89h.23c.08,0,.13.04.13.13v8.06c0,.67-.2,1.2-.59,1.6-.39.4-.92.6-1.58.6h-1.61c-.66,0-1.18-.2-1.58-.6-.39-.4-.59-.93-.59-1.6v-1.29c0-.1.05-.14.13-.14h.23c.08,0,.13.05.13.14v1.28c0,.55.15.98.44,1.29s.71.47,1.25.47h1.61c.54,0,.96-.15,1.25-.47s.44-.74.44-1.29v-8.03c0-.1.04-.14.13-.14Z"/>
        <path class="cls-3" d="M173.61,93.28h-.23c-.1,0-.13-.05-.1-.15l3.39-10.1c.03-.1.09-.14.16-.14h.39c.08,0,.13.05.16.14l3.4,10.1c.03.1,0,.15-.1.15h-.24c-.08,0-.13-.05-.16-.15l-.99-2.81h-4.53l-.98,2.81c-.05.1-.1.15-.18.15ZM177.01,83.5l-2.05,6.33h4.17l-2.05-6.33h-.06Z"/>
        <path class="cls-3" d="M183.1,93.28h-.23c-.09,0-.13-.05-.13-.15v-10.1c0-.1.04-.14.13-.14h3.65c.66,0,1.18.2,1.58.6s.59.93.59,1.6v1.99c0,.67-.19,1.2-.59,1.6-.39.4-.92.6-1.58.6h-3.15c-.1,0-.15.04-.15.13v3.73c0,.1-.04.15-.13.15ZM183.37,88.82h3.15c.54,0,.95-.15,1.24-.47.29-.31.44-.74.44-1.29v-1.96c0-.55-.14-.98-.44-1.29-.29-.31-.7-.47-1.24-.47h-3.15c-.1,0-.15.05-.15.13v5.22c0,.09.05.13.15.13Z"/>
        <path class="cls-3" d="M195.22,93.28h-2.02c-.66,0-1.18-.2-1.58-.6-.39-.4-.59-.93-.59-1.6v-5.99c0-.67.19-1.2.59-1.6s.92-.6,1.58-.6h2.02c.66,0,1.18.2,1.58.6s.59.93.59,1.6v5.99c0,.67-.19,1.2-.59,1.6-.39.4-.92.6-1.58.6ZM193.2,92.83h2.02c.54,0,.95-.15,1.25-.47.29-.31.43-.74.43-1.29v-5.96c0-.55-.14-.98-.43-1.29-.29-.31-.71-.47-1.25-.47h-2.02c-.54,0-.95.16-1.24.47-.29.31-.44.74-.44,1.29v5.96c0,.55.14.98.44,1.29.29.31.7.47,1.24.47Z"/>
        <path class="cls-3" d="M200.48,93.28h-.23c-.09,0-.13-.05-.13-.15v-10.1c0-.1.04-.14.13-.14h.23c.05,0,.09.02.11.06l5.41,9.16h.06v-9.08c0-.1.05-.14.13-.14h.23c.08,0,.13.05.13.14v10.1c0,.1-.04.15-.13.15h-.16c-.08,0-.14-.04-.19-.13l-5.4-9.13h-.06v9.11c0,.1-.04.15-.13.15Z"/>
        <path class="cls-3" d="M208.84,93.28h-.23c-.1,0-.13-.05-.1-.15l3.39-10.1c.03-.1.09-.14.16-.14h.39c.08,0,.13.05.16.14l3.4,10.1c.03.1,0,.15-.1.15h-.24c-.08,0-.13-.05-.16-.15l-.99-2.81h-4.53l-.98,2.81c-.05.1-.1.15-.18.15ZM212.23,83.5l-2.05,6.33h4.17l-2.05-6.33h-.06Z"/>
        <path class="cls-3" d="M218.54,83.03v10.1c0,.1-.05.15-.13.15h-.23c-.09,0-.13-.05-.13-.15v-10.1c0-.1.04-.14.13-.14h.23c.08,0,.13.05.13.14Z"/>
        <path class="cls-3" d="M221.52,91.08v-.65c0-.1.04-.15.13-.15h.23c.09,0,.13.05.13.15v.63c0,.55.15.98.44,1.29s.7.47,1.25.47h1.94c.54,0,.95-.15,1.24-.47s.44-.74.44-1.29v-.81c0-.51-.2-.91-.6-1.21-.4-.3-.88-.51-1.45-.65-.57-.14-1.13-.27-1.7-.4-.56-.14-1.05-.36-1.45-.67-.4-.31-.6-.74-.6-1.28v-.97c0-.67.2-1.2.59-1.6.39-.4.92-.6,1.58-.6h1.94c.66,0,1.18.2,1.58.6.39.4.59.93.59,1.6v.48c0,.1-.04.14-.13.14h-.23c-.09,0-.13-.05-.13-.14v-.47c0-.55-.15-.98-.44-1.29s-.7-.47-1.24-.47h-1.94c-.54,0-.96.16-1.25.47s-.44.74-.44,1.29v.94c0,.8.68,1.35,2.04,1.65.57.12,1.14.25,1.7.39.56.15,1.05.39,1.45.74.4.35.6.82.6,1.4v.86c0,.67-.2,1.2-.59,1.6-.39.4-.92.6-1.58.6h-1.94c-.66,0-1.18-.2-1.58-.6-.39-.4-.59-.93-.59-1.6Z"/>
      </g>
      <g>
        <g>
          <path class="cls-2" d="M36.16,29.29v.5c-1.22.08-2.3.23-3.24.45s-1.88.76-2.83,1.63c-.69.65-1.16,1.08-1.4,1.3-.25.22-.52.46-.81.74l-14.85,14.68,17.75,20.06c1.38,1.54,2.56,2.51,3.54,2.9.98.39,2.22.68,3.74.86v.47h-9.41l-19.5-22.04v16.78c0,3.1,1.56,4.69,4.68,4.79v.47H0v-.47c.87-.04,1.64-.2,2.31-.49.67-.29,1.23-.78,1.67-1.48.45-.7.67-1.64.67-2.83v-33.08c0-1.83-.46-3.07-1.38-3.71-.92-.64-2.01-.98-3.27-1.02v-.5h13.82v.5c-3.12.1-4.68,1.68-4.68,4.73v16.1l16.72-16.72s.04-.02.12-.18c.93-.85,1.39-1.58,1.39-2.19,0-.69-.27-1.13-.81-1.3-.54-.18-1.36-.33-2.44-.45v-.5h12.04Z"/>
          <path class="cls-2" d="M60.53,29.29v.5c-1.3,0-2.41.37-3.31,1.09-.91.73-1.36,1.94-1.36,3.64v33.08c0,1.68.48,2.89,1.45,3.65.97.76,2.04,1.14,3.23,1.14v.47h-13.82v-.47c1.26,0,2.35-.37,3.27-1.11.92-.74,1.38-1.97,1.38-3.68v-33.08c0-1.81-.46-3.06-1.38-3.73-.92-.67-2.01-1.01-3.27-1.01v-.5h13.82Z"/>
          <path class="cls-2" d="M109.82,29.29v.5c-1.3.02-2.46.33-3.48.92s-1.81,1.21-2.38,1.85c-.57.64-1.18,1.41-1.83,2.32l-10.18,15.33v17.46c0,1.56.47,2.73,1.41,3.51.94.78,2.07,1.19,3.39,1.23v.47h-13.82v-.47c1.4-.04,2.51-.44,3.33-1.2.82-.76,1.23-1.94,1.23-3.54v-16.72l-11.1-16.63c-1.18-1.79-2.24-2.99-3.18-3.58s-2.2-.91-3.8-.95v-.5h15.48v.5c-1.58.06-2.59.4-3.03,1.02-.44.62-.67,1.21-.67,1.76,0,.63.38,1.52,1.15,2.66l9.08,13.46,8.05-12.13c1.22-1.81,1.83-3.2,1.83-4.17,0-.67-.16-1.19-.49-1.57-.33-.37-.66-.62-.99-.74s-.69-.22-1.07-.3v-.5h11.07Z"/>
          <path class="cls-2" d="M202.33,29.29v.5c-.83.1-1.42.18-1.78.25-.36.07-.75.27-1.18.61-.67.52-1.09,1-1.26,1.45-.17.45-.27,1.24-.31,2.37-.06.18-.06.36,0,.53l1.51,32.37c.04,1.36.36,2.54.98,3.52.61.99,1.94,1.49,3.99,1.51v.47h-14.11v-.47c1.85-.2,3.11-.74,3.76-1.61.65-.88.93-2.24.83-4.1l-1.51-33.5h-.12l-15.39,39.68-14.56-38.23h-.12l-1.57,30.89c-.08,1.7.02,3.01.31,3.95.29.94.75,1.61,1.38,2.01.63.4,1.57.7,2.81.9v.47h-10.98v-.47c1.4-.02,2.47-.36,3.2-1.01s1.21-1.47,1.44-2.44c.23-.98.4-2.31.52-4.01l1.75-31.96c0-.12-.12-.33-.36-.64-.24-.3-.53-.61-.87-.92-.35-.31-.67-.55-.99-.72-.67-.42-1.25-.66-1.75-.73-.49-.07-1.18-.13-2.07-.19v-.5h10.12l13.49,35.65,13.7-35.65h9.14Z"/>
          <path class="cls-2" d="M227.8,29.29v.5c-1.3,0-2.41.37-3.31,1.09-.91.73-1.36,1.94-1.36,3.64v33.08c0,1.68.48,2.89,1.45,3.65.97.76,2.04,1.14,3.23,1.14v.47h-13.82v-.47c1.26,0,2.35-.37,3.27-1.11.92-.74,1.38-1.97,1.38-3.68v-33.08c0-1.81-.46-3.06-1.38-3.73-.92-.67-2.01-1.01-3.27-1.01v-.5h13.82Z"/>
        </g>
        <line class="cls-1" x1="138.23" y1="31.48" x2="147.39" y2=".06"/>
        <path class="cls-2" d="M148.12,49.97c0,4.09-.85,7.88-2.54,11.39-1.69,3.51-4,6.31-6.92,8.39-2.92,2.08-6.16,3.12-9.7,3.12s-6.83-1.04-9.8-3.12c-2.97-2.08-5.31-4.89-7.02-8.42-1.71-3.53-2.56-7.37-2.56-11.54,0-3.2.51-6.2,1.52-9.01,1.01-2.81,2.43-5.26,4.26-7.35,1.82-2.09,3.9-3.71,6.24-4.85,2.33-1.14,4.77-1.72,7.32-1.72s4.88.55,7.18,1.64c2.29,1.09,4.35,2.68,6.18,4.75,1.82,2.07,3.26,4.53,4.3,7.37s1.56,5.96,1.56,9.35ZM143.77,50.09c0-5.8-.86-10.33-2.57-13.61-1.72-3.27-3.7-5.47-5.94-6.58-2.25-1.11-4.36-1.67-6.34-1.67-1.54,0-3.13.3-4.78.9-1.65.6-3.26,1.7-4.81,3.3-1.56,1.6-2.84,3.85-3.85,6.75s-1.51,6.48-1.51,10.74c0,3.75.41,7.02,1.25,9.81.83,2.79,1.98,5.07,3.44,6.84,1.46,1.76,3.07,3.04,4.83,3.82,1.76.78,3.58,1.17,5.48,1.17,1.7,0,3.42-.36,5.16-1.08,1.74-.72,3.33-1.89,4.78-3.52,1.45-1.63,2.62-3.84,3.52-6.63.9-2.79,1.35-6.2,1.35-10.22Z"/>
        <ellipse class="cls-4" cx="128.89" cy="49.87" rx="11.91" ry="16.52"/>
        <line class="cls-1" x1="125.51" y1="49.83" x2="151.08" y2="1.32"/>
      </g>
    </g>
  </g>
</svg>