<?xml version="1.0" encoding="UTF-8"?>
<svg id="Calque_2" data-name="Calque 2" xmlns="http://www.w3.org/2000/svg" viewBox="0 0 98.43 172.43">
  <defs>
    <style>
      .cls-1 {
        fill: none;
        stroke: #1d1d1b;
        stroke-miterlimit: 10;
        stroke-width: .4px;
      }

      .cls-2 {
        fill: #1d1d1b;
      }

      .cls-3 {
        fill: #b13127;
      }
    </style>
  </defs>
  <g id="Calque_1-2" data-name="Calque 1">
    <line class="cls-1" x1="67.83" y1="74.43" x2="89.52" y2=".06"/>
    <path class="cls-2" d="M91.24,118.21c0,9.67-2,18.66-6.01,26.97-4,8.31-9.46,14.93-16.38,19.86-6.91,4.92-14.57,7.39-22.97,7.39s-16.17-2.47-23.21-7.39c-7.03-4.93-12.57-11.57-16.61-19.93-4.05-8.35-6.07-17.46-6.07-27.31,0-7.56,1.2-14.68,3.61-21.33,2.4-6.65,5.76-12.45,10.08-17.4,4.31-4.95,9.24-8.78,14.77-11.49,5.53-2.71,11.3-4.06,17.32-4.06s11.56,1.29,16.99,3.89c5.43,2.59,10.31,6.34,14.62,11.24,4.32,4.9,7.71,10.71,10.17,17.44,2.46,6.72,3.69,14.11,3.69,22.13ZM80.93,118.49c0-13.73-2.04-24.46-6.09-32.22-4.07-7.74-8.76-12.94-14.06-15.58-5.32-2.63-10.31-3.96-15-3.96-3.64,0-7.41.71-11.31,2.13-3.91,1.43-7.71,4.03-11.4,7.81-3.69,3.78-6.73,9.11-9.11,15.97-2.38,6.86-3.57,15.34-3.57,25.43,0,8.87.98,16.61,2.96,23.21,1.97,6.61,4.69,12,8.14,16.18,3.46,4.18,7.27,7.19,11.43,9.03,4.16,1.85,8.48,2.77,12.98,2.77,4.02,0,8.1-.85,12.22-2.55,4.12-1.71,7.89-4.48,11.31-8.34,3.42-3.85,6.19-9.08,8.32-15.69,2.13-6.6,3.2-14.68,3.2-24.2Z"/>
    <ellipse class="cls-3" cx="45.73" cy="117.97" rx="28.19" ry="39.11"/>
    <line class="cls-1" x1="37.7" y1="117.89" x2="98.25" y2="3.05"/>
  </g>
</svg>